<?xml version="1.0" encoding="UTF-8" standalone="no"?>
<!-- Created with Inkscape (http://www.inkscape.org/) -->

<svg
   xmlns:dc="http://purl.org/dc/elements/1.1/"
   xmlns:cc="http://creativecommons.org/ns#"
   xmlns:rdf="http://www.w3.org/1999/02/22-rdf-syntax-ns#"
   xmlns:svg="http://www.w3.org/2000/svg"
   xmlns="http://www.w3.org/2000/svg"
   xmlns:sodipodi="http://sodipodi.sourceforge.net/DTD/sodipodi-0.dtd"
   xmlns:inkscape="http://www.inkscape.org/namespaces/inkscape"
   width="361.97922"
   height="285.51349"
   viewBox="0 0 95.773666 75.542114"
   version="1.1"
   id="svg4597"
   inkscape:version="0.92.4 (5da689c313, 2019-01-14)"
   sodipodi:docname="super.svg">
  <defs
     id="defs4591" />
  <sodipodi:namedview
     id="base"
     pagecolor="#ffffff"
     bordercolor="#666666"
     borderopacity="1.0"
     inkscape:pageopacity="0.0"
     inkscape:pageshadow="2"
     inkscape:zoom="0.35"
     inkscape:cx="-283.29612"
     inkscape:cy="82.756749"
     inkscape:document-units="mm"
     inkscape:current-layer="layer1"
     showgrid="false"
     fit-margin-top="0"
     fit-margin-left="0"
     fit-margin-right="0"
     fit-margin-bottom="0"
     inkscape:window-width="1920"
     inkscape:window-height="1017"
     inkscape:window-x="1912"
     inkscape:window-y="-8"
     inkscape:window-maximized="1"
     units="px" />
  <metadata
     id="metadata4594">
    <rdf:RDF>
      <cc:Work
         rdf:about="">
        <dc:format>image/svg+xml</dc:format>
        <dc:type
           rdf:resource="http://purl.org/dc/dcmitype/StillImage" />
        <dc:title></dc:title>
      </cc:Work>
    </rdf:RDF>
  </metadata>
  <g
     inkscape:label="Layer 1"
     inkscape:groupmode="layer"
     id="layer1"
     transform="translate(-57.946503,-95.187273)">
    <path
       style="fill:none;stroke:#f9f9f9;stroke-width:5.29166651;stroke-linecap:butt;stroke-linejoin:miter;stroke-miterlimit:4;stroke-dasharray:none;stroke-opacity:1"
       d="m 133.87787,97.83311 16.25298,16.25297 -44.29752,52.53869 -44.29751,-52.53869 16.252992,-16.25297 h 28.044518 z"
       id="path3736"
       inkscape:connector-curvature="0"
       sodipodi:nodetypes="ccccccc" />
    <g
       aria-label="S"
       style="font-style:normal;font-weight:normal;font-size:10.58333302px;line-height:1.25;font-family:sans-serif;letter-spacing:0px;word-spacing:0px;fill:#f9f9f9;fill-opacity:1;stroke:#f9f9f9;stroke-width:0.26458332;stroke-opacity:1"
       id="g4562"
       transform="matrix(2.5518952,0,0,1.2642434,787.31934,-129.16905)">
      <path
         d="m -256.36283,180.81143 0.27285,11.21172 h -1.95959 c -1.92768,-1.19419 -1.80719,-3.23377 -3.65858,-4.97472 -1.86862,-1.7198 -3.89434,-2.57969 -6.07715,-2.57969 -1.68672,0 -3.02617,0.45475 -4.01836,1.36426 -0.97565,0.89296 -1.17355,0.92231 -1.17355,2.0964 0,0.74415 -0.005,0.61283 0.34248,1.1916 0.47956,0.77721 1.24851,1.54616 2.30684,2.30684 0.77721,0.5457 2.57142,1.51308 5.38261,2.90214 3.93568,1.93477 6.58978,3.76205 7.96231,5.48184 1.35599,1.71979 2.03398,3.68763 2.03398,5.90352 0,2.81119 -1.09967,5.23378 -3.29902,7.26777 -2.18281,2.01745 -4.96094,3.02617 -8.33438,3.02617 -1.05833,0 -2.05879,-0.10749 -3.00136,-0.32246 -0.94258,-0.21497 -2.12494,-0.62012 -3.54707,-1.21543 -7.57661,-2.13254 -3.66743,-16.45171 -0.57538,-5.43054 2.08359,1.86862 4.32428,2.80293 6.72207,2.80293 1.85209,0 3.32383,-0.50436 4.41524,-1.51308 1.84377,-2.17211 1.51315,-3.05061 1.29471,-3.39994 -0.41341,-0.74414 -1.05007,-1.44694 -1.90996,-2.10839 -0.8599,-0.678 -2.38126,-1.55443 -4.56407,-2.6293 -3.05924,-1.50482 -5.25859,-2.7864 -6.59804,-3.84473 -1.33945,-1.05833 -2.37298,-2.24069 -3.10059,-3.54707 -0.71107,-1.30638 -1.0666,-2.74505 -1.0666,-4.31601 0,-2.67891 0.98392,-4.96094 2.95176,-6.8461 1.96784,-1.88515 4.44831,-2.82773 7.4414,-2.82773 1.09141,0 2.14974,0.13229 3.175,0.39687 0.77721,0.19844 1.71979,0.57051 2.82774,1.11622 1.12448,0.52917 1.90996,0.79375 2.35644,0.79375 0.42995,0 0.76895,-0.13229 1.017,-0.39688 0.24805,-0.26458 0.47956,-0.90123 0.69453,-1.90996 z"
         style="font-style:normal;font-variant:normal;font-weight:bold;font-stretch:normal;font-size:50.79999924px;font-family:serif;-inkscape-font-specification:'serif Bold';stroke:#f9f9f9;stroke-width:0.26458332;stroke-opacity:1;fill:#f9f9f9;fill-opacity:1"
         id="path4560"
         inkscape:connector-curvature="0"
         sodipodi:nodetypes="ccccscsccccscssccsccccscscsccsccc" />
    </g>
  </g>
</svg>
